# xmcd CD database file
#
# Track frame offsets:
#	150
#	23702
#	40980
#	58009
#	95192
#	332550
#
# Disc length: 4440 seconds
#
# Revision: 13
# Processed by: cddbd v1.5.1PL2 Copyright (c) Steve Scherf et al.
# Submitted via: CDex 1.51
#
DISCID=4d115606
DTITLE=ORANGE RANGE - ミチシルベ 〜a road home〜
DYEAR=2004
DGENRE=J-Pop
TTITLE0=ミチシルベ 〜a road home〜
TTITLE1=ZUNG ZUNG FUNKY MUSIC
TTITLE2=山内公園
TTITLE3=ミチシルベ 〜a road home・ryukyudisco remix〜
TTITLE4=データ
TTITLE5=データ
EXTD=YEAR: 2004/02/25
EXTT0=
EXTT1=
EXTT2=
EXTT3=
EXTT4=
EXTT5=
PLAYORDER=
